<svg width="142" height="19" viewBox="0 0 142 19" fill="none" xmlns="http://www.w3.org/2000/svg">
<path d="M11.84 0.999999V15H10.82V8.34H1.46V15H0.44V0.999999H1.46V7.44H10.82V0.999999H11.84ZM20.4891 15.08C19.5024 15.08 18.6091 14.8533 17.8091 14.4C17.0224 13.9467 16.4024 13.32 15.9491 12.52C15.4957 11.7067 15.2691 10.7933 15.2691 9.78C15.2691 8.76667 15.4957 7.86 15.9491 7.06C16.4024 6.24667 17.0224 5.61333 17.8091 5.16C18.6091 4.70667 19.5024 4.48 20.4891 4.48C21.4757 4.48 22.3624 4.70667 23.1491 5.16C23.9491 5.61333 24.5757 6.24667 25.0291 7.06C25.4824 7.86 25.7091 8.76667 25.7091 9.78C25.7091 10.7933 25.4824 11.7067 25.0291 12.52C24.5757 13.32 23.9491 13.9467 23.1491 14.4C22.3624 14.8533 21.4757 15.08 20.4891 15.08ZM20.4891 14.18C21.2891 14.18 22.0024 13.9933 22.6291 13.62C23.2691 13.2467 23.7691 12.7267 24.1291 12.06C24.5024 11.3933 24.6891 10.6333 24.6891 9.78C24.6891 8.92667 24.5024 8.16667 24.1291 7.5C23.7691 6.83333 23.2691 6.31333 22.6291 5.94C22.0024 5.56667 21.2891 5.38 20.4891 5.38C19.6891 5.38 18.9691 5.56667 18.3291 5.94C17.7024 6.31333 17.2024 6.83333 16.8291 7.5C16.4691 8.16667 16.2891 8.92667 16.2891 9.78C16.2891 10.6333 16.4691 11.3933 16.8291 12.06C17.2024 12.7267 17.7024 13.2467 18.3291 13.62C18.9691 13.9933 19.6891 14.18 20.4891 14.18ZM34.0514 4.48C35.0247 4.48 35.9047 4.70667 36.6914 5.16C37.4781 5.61333 38.0914 6.24 38.5314 7.04C38.9847 7.84 39.2114 8.75333 39.2114 9.78C39.2114 10.8067 38.9847 11.7267 38.5314 12.54C38.0914 13.34 37.4781 13.9667 36.6914 14.42C35.9047 14.86 35.0247 15.08 34.0514 15.08C33.1314 15.08 32.2981 14.8667 31.5514 14.44C30.8047 14 30.2247 13.3933 29.8114 12.62V18.88H28.8114V4.56H29.7714V7.02C30.1847 6.22 30.7647 5.6 31.5114 5.16C32.2714 4.70667 33.1181 4.48 34.0514 4.48ZM33.9914 14.18C34.7914 14.18 35.5114 13.9933 36.1514 13.62C36.7914 13.2467 37.2914 12.7267 37.6514 12.06C38.0247 11.3933 38.2114 10.6333 38.2114 9.78C38.2114 8.92667 38.0247 8.16667 37.6514 7.5C37.2914 6.83333 36.7914 6.31333 36.1514 5.94C35.5114 5.56667 34.7914 5.38 33.9914 5.38C33.1914 5.38 32.4714 5.56667 31.8314 5.94C31.2047 6.31333 30.7047 6.83333 30.3314 7.5C29.9714 8.16667 29.7914 8.92667 29.7914 9.78C29.7914 10.6333 29.9714 11.3933 30.3314 12.06C30.7047 12.7267 31.2047 13.2467 31.8314 13.62C32.4714 13.9933 33.1914 14.18 33.9914 14.18ZM48.5475 15.1C47.1742 15.1 45.9342 14.7933 44.8275 14.18C43.7342 13.5667 42.8675 12.72 42.2275 11.64C41.6008 10.56 41.2875 9.34667 41.2875 8C41.2875 6.65333 41.6008 5.44 42.2275 4.36C42.8675 3.28 43.7342 2.43333 44.8275 1.82C45.9342 1.20667 47.1742 0.899999 48.5475 0.899999C49.5608 0.899999 50.4942 1.06667 51.3475 1.4C52.2008 1.72 52.9275 2.2 53.5275 2.84L52.8875 3.5C51.7675 2.39333 50.3342 1.84 48.5875 1.84C47.4142 1.84 46.3475 2.10667 45.3875 2.64C44.4275 3.17333 43.6742 3.91333 43.1275 4.86C42.5808 5.79333 42.3075 6.84 42.3075 8C42.3075 9.16 42.5808 10.2133 43.1275 11.16C43.6742 12.0933 44.4275 12.8267 45.3875 13.36C46.3475 13.8933 47.4142 14.16 48.5875 14.16C50.3208 14.16 51.7542 13.6 52.8875 12.48L53.5275 13.14C52.9275 13.78 52.1942 14.2667 51.3275 14.6C50.4742 14.9333 49.5475 15.1 48.5475 15.1ZM59.9681 4.48C61.2615 4.48 62.2548 4.81333 62.9481 5.48C63.6415 6.13333 63.9881 7.1 63.9881 8.38V15H63.0281V13.14C62.6948 13.7533 62.2081 14.2333 61.5681 14.58C60.9281 14.9133 60.1615 15.08 59.2681 15.08C58.1081 15.08 57.1881 14.8067 56.5081 14.26C55.8415 13.7133 55.5081 12.9933 55.5081 12.1C55.5081 11.2333 55.8148 10.5333 56.4281 10C57.0548 9.45333 58.0481 9.18 59.4081 9.18H62.9881V8.34C62.9881 7.36667 62.7215 6.62667 62.1881 6.12C61.6681 5.61333 60.9015 5.36 59.8881 5.36C59.1948 5.36 58.5281 5.48 57.8881 5.72C57.2615 5.96 56.7281 6.28 56.2881 6.68L55.7881 5.96C56.3081 5.49333 56.9348 5.13333 57.6681 4.88C58.4015 4.61333 59.1681 4.48 59.9681 4.48ZM59.4081 14.26C60.2748 14.26 61.0081 14.06 61.6081 13.66C62.2215 13.26 62.6815 12.68 62.9881 11.92V9.96H59.4281C58.4015 9.96 57.6548 10.1467 57.1881 10.52C56.7348 10.8933 56.5081 11.4067 56.5081 12.06C56.5081 12.74 56.7615 13.28 57.2681 13.68C57.7748 14.0667 58.4881 14.26 59.4081 14.26ZM69.0683 6.84C69.3883 6.08 69.8883 5.5 70.5683 5.1C71.2483 4.68667 72.0749 4.48 73.0483 4.48V5.46L72.8083 5.44C71.6483 5.44 70.7416 5.80667 70.0883 6.54C69.4349 7.26 69.1083 8.26667 69.1083 9.56V15H68.1083V4.56H69.0683V6.84ZM84.9859 0.159999V15H84.0059V12.54C83.5926 13.3533 83.0126 13.98 82.2659 14.42C81.5193 14.86 80.6726 15.08 79.7259 15.08C78.7526 15.08 77.8726 14.8533 77.0859 14.4C76.2993 13.9467 75.6793 13.32 75.2259 12.52C74.7859 11.72 74.5659 10.8067 74.5659 9.78C74.5659 8.75333 74.7859 7.84 75.2259 7.04C75.6793 6.22667 76.2993 5.6 77.0859 5.16C77.8726 4.70667 78.7526 4.48 79.7259 4.48C80.6593 4.48 81.4926 4.7 82.2259 5.14C82.9726 5.58 83.5593 6.19333 83.9859 6.98V0.159999H84.9859ZM79.7859 14.18C80.5859 14.18 81.2993 13.9933 81.9259 13.62C82.5659 13.2467 83.0659 12.7267 83.4259 12.06C83.7993 11.3933 83.9859 10.6333 83.9859 9.78C83.9859 8.92667 83.7993 8.16667 83.4259 7.5C83.0659 6.83333 82.5659 6.31333 81.9259 5.94C81.2993 5.56667 80.5859 5.38 79.7859 5.38C78.9859 5.38 78.2659 5.56667 77.6259 5.94C76.9993 6.31333 76.4993 6.83333 76.1259 7.5C75.7659 8.16667 75.5859 8.92667 75.5859 9.78C75.5859 10.6333 75.7659 11.3933 76.1259 12.06C76.4993 12.7267 76.9993 13.2467 77.6259 13.62C78.2659 13.9933 78.9859 14.18 79.7859 14.18ZM107.339 0.999999L101.279 15H98.0788L92.0387 0.999999H95.5388L99.7988 11L104.119 0.999999H107.339ZM108.508 0.999999H111.748V15H108.508V0.999999ZM119.67 15.24C118.563 15.24 117.49 15.0933 116.45 14.8C115.423 14.4933 114.597 14.1 113.97 13.62L115.07 11.18C115.67 11.62 116.383 11.9733 117.21 12.24C118.037 12.5067 118.863 12.64 119.69 12.64C120.61 12.64 121.29 12.5067 121.73 12.24C122.17 11.96 122.39 11.5933 122.39 11.14C122.39 10.8067 122.257 10.5333 121.99 10.32C121.737 10.0933 121.403 9.91333 120.99 9.78C120.59 9.64667 120.043 9.5 119.35 9.34C118.283 9.08667 117.41 8.83333 116.73 8.58C116.05 8.32667 115.463 7.92 114.97 7.36C114.49 6.8 114.25 6.05333 114.25 5.12C114.25 4.30667 114.47 3.57333 114.91 2.92C115.35 2.25333 116.01 1.72667 116.89 1.34C117.783 0.953333 118.87 0.76 120.15 0.76C121.043 0.76 121.917 0.866666 122.77 1.08C123.623 1.29333 124.37 1.6 125.01 2L124.01 4.46C122.717 3.72667 121.423 3.36 120.13 3.36C119.223 3.36 118.55 3.50667 118.11 3.8C117.683 4.09333 117.47 4.48 117.47 4.96C117.47 5.44 117.717 5.8 118.21 6.04C118.717 6.26667 119.483 6.49333 120.51 6.72C121.577 6.97333 122.45 7.22667 123.13 7.48C123.81 7.73333 124.39 8.13333 124.87 8.68C125.363 9.22667 125.61 9.96667 125.61 10.9C125.61 11.7 125.383 12.4333 124.93 13.1C124.49 13.7533 123.823 14.2733 122.93 14.66C122.037 15.0467 120.95 15.24 119.67 15.24ZM137.044 12H130.544L129.304 15H125.984L132.224 0.999999H135.424L141.684 15H138.284L137.044 12ZM136.024 9.54L133.804 4.18L131.584 9.54H136.024Z" fill="#626262"/>
</svg>
